<?xml version="1.0" encoding="UTF-8" standalone="no"?>
<svg width="250px" height="59px" viewBox="0 0 250 59" version="1.1" xmlns="http://www.w3.org/2000/svg" xmlns:xlink="http://www.w3.org/1999/xlink">
    <!-- Generator: Sketch 39.1 (31720) - http://www.bohemiancoding.com/sketch -->
    <title>Group</title>
    <desc>Created with Sketch.</desc>
    <defs></defs>
    <g id="Page-1" stroke="none" stroke-width="1" fill="none" fill-rule="evenodd">
        <g id="Artboard-8" transform="translate(-25.000000, -46.000000)" fill="#000000">
            <g id="Group" transform="translate(25.000000, 46.000000)">
                <polygon id="&gt;" points="35.8959632 33.526053 0 56.4263624 0 42.3197718 23.0759764 28.3963837 23.0759764 28.0299787 0 14.1065906 0 0 35.8959632 22.9003094"></polygon>
                <path d="M71.6061497,5.53028045 L42.8158845,5.53028045 L42.8158845,10.271689 L54.2851771,10.271689 L54.2851771,45.8615211 L59.8442731,45.8615211 L59.8442731,10.271689 L71.0209817,10.271689 L71.6061497,5.53028045 Z M86.5181807,14.3106667 C82.7731056,14.3106667 79.9057824,16.652103 78.267312,21.2764397 L77.7406609,15.0130976 L73.1178337,15.0130976 L73.1178337,45.8615211 L78.5013792,45.8615211 L78.5013792,28.2422128 C79.7887488,22.3300861 82.0123872,19.5788984 85.874496,19.5788984 C86.9863151,19.5788984 87.6299999,19.6959702 88.5662687,19.9301138 L89.5610543,14.6618821 C88.6247855,14.4277385 87.5129663,14.3106667 86.5181807,14.3106667 L86.5181807,14.3106667 Z M121.7648,15.0130976 L116.205704,15.0130976 L108.130385,41.9396153 L99.8795166,15.0130976 L94.1448703,15.0130976 L104.502344,45.8615211 L106.316365,45.8615211 C104.560861,50.6614656 102.805357,53.0614378 96.544059,54.1150842 L97.129227,58.3296696 C105.67268,57.393095 109.300721,52.5931506 111.465843,46.0371289 L121.7648,15.0130976 Z M147.990078,24.3788429 C151.735154,23.5008042 155.421712,20.8081525 155.421712,15.6569926 C155.421712,8.0473245 148.750797,5.29613682 137.866672,5.29613682 L126.397379,5.29613682 L126.397379,45.8615211 L139.446626,45.8615211 C149.628549,45.8615211 157.118699,43.2859412 157.118699,34.0372677 C157.118699,27.481246 152.495872,25.2568815 147.990078,24.3788429 L147.990078,24.3788429 Z M139.290581,12.0863022 C143.913408,12.0863022 146.137046,13.1984844 146.137046,16.5935671 C146.137046,19.9886498 144.030442,21.5105834 140.051299,21.5105834 L136.481775,21.5105834 L136.481775,12.0863022 L139.290581,12.0863022 Z M139.992783,38.8957481 L136.481775,38.8957481 L136.481775,27.8909973 L140.694984,27.8909973 C144.849677,27.8909973 147.717,29.412931 147.717,33.5104445 C147.717,37.9591735 144.498576,38.8957481 139.992783,38.8957481 L139.992783,38.8957481 Z M187.264604,36.8469913 L187.264604,24.7885942 C187.264604,17.5886775 183.402495,13.7838435 174.390908,13.7838435 C170.8799,13.7838435 166.608173,14.6033462 162.687548,16.0667439 L164.794153,22.1544784 C167.895543,21.100832 170.938417,20.5154729 172.927988,20.5154729 C176.73158,20.5154729 178.1945,21.6276552 178.1945,25.3154174 L178.1945,26.6617433 L175.034592,26.6617433 C165.613388,26.6617433 160.463909,30.3495055 160.463909,37.1396708 C160.463909,42.8176539 164.384535,46.8566316 170.587316,46.8566316 C174.273874,46.8566316 177.726365,45.6273775 179.950004,42.2322948 C181.412924,45.2761621 183.812112,46.3883443 187.440154,46.6810239 L189.371208,40.6518253 C187.908288,40.1250021 187.264604,39.2469635 187.264604,36.8469913 L187.264604,36.8469913 Z M173.522908,40.242074 C171.240753,40.242074 169.894867,38.7786763 169.894867,36.3201681 C169.894867,33.217765 171.942955,31.7543673 176.156164,31.7543673 L178.43832,31.7543673 L178.43832,37.3152786 C177.3265,39.1298917 175.629513,40.242074 173.522908,40.242074 L173.522908,40.242074 Z M206.311822,13.7838435 C198.470571,13.7838435 193.613676,17.939893 193.613676,23.2666606 C193.613676,28.0666051 196.65655,31.2275441 202.800814,32.9836214 C208.418426,34.5640909 209.354695,35.2079859 209.354695,37.3152786 C209.354695,39.1884276 207.657708,40.242074 204.848902,40.242074 C201.806028,40.242074 198.938705,39.0128199 196.598033,37.1982067 L192.092239,42.2322948 C195.135113,44.9834825 199.699423,46.8566316 205.082969,46.8566316 C212.807186,46.8566316 218.892934,43.0517975 218.892934,36.6128477 C218.892934,31.0519364 215.440442,28.4763564 209.296178,26.7202792 C203.737083,25.0812738 202.917847,24.3788429 202.917847,22.7398374 C202.917847,21.3349756 204.1467,20.3984011 206.662922,20.3984011 C209.354695,20.3984011 211.929434,21.2764397 214.328623,22.7983733 L217.722598,17.5886775 C214.855274,15.2472412 210.817615,13.7838435 206.311822,13.7838435 L206.311822,13.7838435 Z M241.343879,13.7838435 C237.715837,13.7838435 234.907031,15.2472412 232.390809,18.0569648 L232.390809,1.49130279 L223.145154,2.42787732 L223.145154,45.8615211 L232.390809,45.8615211 L232.390809,24.5544506 C234.029279,22.0374065 235.726266,20.5740088 237.774354,20.5740088 C239.529858,20.5740088 240.700194,21.4520475 240.700194,24.7300583 L240.700194,45.8615211 L249.945848,45.8615211 L249.945848,23.1495888 C249.945848,17.2374621 246.727424,13.7838435 241.343879,13.7838435 L241.343879,13.7838435 Z" id="TryBash"></path>
            </g>
        </g>
    </g>
</svg>